# file generated by UVMapper
# NumVerts/NumTVerts/NumVNormals/NumFacets   8/23/6/6
# NumGroups/NumMaterials/NumRegions   0/1/0
# x/y/color/ppu   4096/3071/0/50.00000000

v  1000.00024414 -1000.00024414 -1000.00018311
v  1000.00024414 -1000.00024414  1000.00024414
v -1000.00036621 -1000.00024414  1000.00006104
v -999.99987793 -1000.00024414 -1000.00061035
v  1000.00073242  1000.00024414 -999.99969482
v  999.99957275  1000.00024414  1000.00085449
v -1000.00061035  1000.00024414  999.99987793
v -1000.00018311  1000.00024414 -1000.00024414

vt  0.49999994  0.00000007
vt  0.49999994  0.33333328
vt  0.25000003  0.33333322
vt  0.25000009  0.00000000
vt  0.50000000  0.99999982
vt  0.25000006  0.99999994
vt  0.25000000  0.66666681
vt  0.74999994  0.33333337
vt  0.74999988  0.66666663
vt  0.50000000  0.66666663
vt  0.50000006  0.33333337
vt  0.49999994  0.33333337
vt  0.49999985  0.66666663
vt  0.25000000  0.66666663
vt  0.25000003  0.33333337
vt  0.24999990  0.33333337
vt  0.24999988  0.66666663
vt  0.00000005  0.66666663
vt  0.00000000  0.33333337
vt  0.75000000  0.66666663
vt  0.75000006  0.33333337
vt  0.99999988  0.33333337
vt  0.99999994  0.66666663

vn  0.00000000 -1.00000000 -0.00000000
vn  0.00000000  1.00000000  0.00000000
vn  1.00000000  0.00000000  0.00000000
vn -0.00000000 -0.00000000  1.00000000
vn -1.00000000 -0.00000000 -0.00000000
vn  0.00000000  0.00000000 -1.00000000

g Figure 1
usemtl Material
s off

f 1/1/1 2/2/1 3/3/1 4/4/1
f 5/5/2 8/6/2 7/7/2 6/13/2
f 1/8/3 5/9/3 6/10/3 2/11/3
f 2/12/4 6/13/4 7/14/4 3/15/4
f 3/16/5 7/17/5 8/18/5 4/19/5
f 5/20/6 1/21/6 4/22/6 8/23/6
